<svg xmlns="http://www.w3.org/2000/svg"> 
	<symbol id="discord" viewBox="0 0 32 32">
		<path d="m 27.636364,7.2727272 c 0,0 -3.335273,-2.6109091 -7.272728,-2.9090908 l -0.354909,0.7105454 c 3.559273,0.872 5.192728,2.1185454 6.900364,3.6530909 C 23.965818,7.2247272 21.061818,5.8181818 16,5.8181818 c -5.061818,0 -7.965818,1.4065454 -10.9090909,2.9090909 C 6.7985455,7.1927272 8.741818,5.8065454 11.991273,5.0741818 L 11.636364,4.3636364 C 7.5054545,4.7527272 4.3636364,7.2727272 4.3636364,7.2727272 c 0,0 -3.7243637,5.4007278 -4.3636364,16.0000008 3.7527273,4.329454 9.454545,4.363636 9.454545,4.363636 L 10.647273,26.048 C 8.622545,25.344 6.3389091,24.088 4.3636364,21.818182 6.7185455,23.6 10.272727,25.454546 16,25.454546 c 5.727273,0 9.281455,-1.854546 11.636364,-3.636364 C 25.661818,24.088 23.378182,25.344 21.352727,26.048 l 1.192728,1.588364 c 0,0 5.701818,-0.03418 9.454545,-4.363636 C 31.360727,12.673455 27.636364,7.2727272 27.636364,7.2727272 Z M 11.272727,20.363637 c -1.406545,0 -2.545454,-1.301818 -2.545454,-2.909091 0,-1.607273 1.138909,-2.909091 2.545454,-2.909091 1.406546,0 2.545455,1.301818 2.545455,2.909091 0,1.607273 -1.138909,2.909091 -2.545455,2.909091 z m 9.454546,0 c -1.406546,0 -2.545455,-1.301818 -2.545455,-2.909091 0,-1.607273 1.138909,-2.909091 2.545455,-2.909091 1.406545,0 2.545454,1.301818 2.545454,2.909091 0,1.607273 -1.138909,2.909091 -2.545454,2.909091 z"></path>
	</symbol>
	<symbol id="vk" viewBox="0 0 32 32">
		<path d="m 31.714774,23.156155 c -0.08601,-0.14401 -0.618045,-1.300095 -3.178233,-3.67627 -2.680197,-2.488182 -2.32017,-2.084153 0.908067,-6.386468 1.966144,-2.620193 2.752202,-4.2203098 2.506184,-4.9043598 -0.234017,-0.652048 -1.680124,-0.480036 -1.680124,-0.480036 l -4.808353,0.028 c 0,0 -0.356026,-0.048 -0.622045,0.110008 -0.258019,0.156012 -0.424031,0.516038 -0.424031,0.516038 0,0 -0.762056,2.0281488 -1.778131,3.7522758 -2.142157,3.638267 -3.00022,3.830281 -3.350246,3.604264 -0.81406,-0.526038 -0.610045,-2.116155 -0.610045,-3.244238 0,-3.5262588 0.53404,-4.9963668 -1.042076,-5.3763938 -0.524038,-0.12601 -0.908067,-0.210016 -2.246165,-0.224017 -1.716126,-0.018 -3.170233,0.006 -3.992293,0.40803 -0.54804,0.26802 -0.970071,0.866064 -0.712052,0.900066 0.318023,0.042 1.038076,0.194014 1.420104,0.714052 0.494036,0.67005 0.476035,2.1781598 0.476035,2.1781598 0,0 0.284021,4.150305 -0.662049,4.666343 -0.650047,0.354026 -1.540113,-0.368027 -3.4502527,-3.67027 C 7.4909965,10.381215 6.7509422,8.5110782 6.7509422,8.5110782 c 0,0 -0.1420104,-0.348025 -0.3960291,-0.534039 C 6.0468905,7.7510222 5.6148588,7.6790172 5.6148588,7.6790172 l -4.5723356,0.028 c 0,0 -0.68605038,0.02 -0.93806888,0.318023 -0.22401645,0.26602 -0.01800132,0.81406 -0.01800132,0.81406 0,0 3.5802628,8.3746148 7.6325603,12.5969248 3.7182727,3.870284 7.9385827,3.616266 7.9385827,3.616266 h 1.91214 c 0,0 0.578043,-0.06401 0.872064,-0.382028 0.27202,-0.292022 0.262019,-0.840062 0.262019,-0.840062 0,0 -0.038,-2.566189 1.154085,-2.944217 1.174086,-0.372027 2.682197,2.480183 4.280314,3.578263 1.208089,0.830061 2.126156,0.648048 2.126156,0.648048 l 4.274314,-0.06 c 0,0 2.236164,-0.138011 1.176086,-1.89614 z"></path>
	</symbol>
</svg>